<?xml version="1.0" encoding="UTF-8"?>
<svg id="Layer_1" data-name="Layer 1" xmlns="http://www.w3.org/2000/svg" viewBox="0 0 1080 1080">
  <defs>
    <style>
      .cls-1 {
        stroke-width: 0px;
      }
    </style>
  </defs>
  <path class="cls-1" d="M1067.34,692.88c-3.24-2.69-7.36-5.89-8.27-9.54-2.08-8.52-3.57-17.47-3.3-26.18.55-17.96-6.21-31.29-21.01-41.36-5.02-3.41-9.22-8.45-12.83-13.43-3.8-5.23-6.1-11.53-9.69-16.94-4.83-7.27-8.13-15.75-18.11-18.71-5.04-1.5-9.73-5.69-9.64-12.42.2-15.48-2.53-31.32,5.76-45.82,2.41-4.21.11-7.3-2.04-11.3-4.92-9.18-11.65-14.53-21.82-16.38-16.1-2.92-22.56-18.38-34.21-27.15-1.36-1.02-2.28-4-1.87-5.72,1.02-4.35,3.44-8.41,4.29-12.77.74-3.79,1.06-8.24-.29-11.64-.77-1.93-5.5-3.64-8.13-3.24-19.11,2.83-36.04,11.69-53.16,20.02-5.59,2.71-11.4,5.04-17.01,7.75-2.6,1.27-6.77,2.69-7.15,4.63-1.89,9.82-10.11,13.78-16.78,18.69-4.41,3.23-10.64,5.72-15.94,5.52-7.29-.28-14.45-3.44-21.68-5.34-4.01-1.06-7.99-2.66-12.07-2.99-8.28-.67-17.15,1.05-24.83-1.3-10.74-3.29-19.47-5.5-29.68,2.56-7.2,5.68-17.22,7.86-26.16,11.13-1.59.59-4.14-.9-6.07-1.82-7.48-3.59-14.57-8.45-22.42-10.77-10.32-3.06-20.76-5.26-29.34-12.32-1.02-.84-2.5-1.4-3.82-1.55-11.19-1.34-23.53.25-30.07-12.38-.1-.18-.39-.24-.56-.39-3.37-3.09-6.73-6.17-9.23-8.46-4.77-1.86-9.47-2.63-12.8-5.19-9.53-7.32-18.74-15.11-27.54-23.29-2.57-2.39-4.56-6.71-4.63-10.2-.08-4.35,2.53-8.69,3.11-13.13.36-2.76-.07-6.43-1.71-8.39-1.34-1.59-5.09-1.97-7.61-1.65-5.34.67-7.75-1.17-8.42-6.53-.32-2.62-1.72-5.29-3.24-7.51-1.92-2.83-4.45-5.23-6.24-7.26,1.5-5.33,2.8-9.96,4.14-14.76,1.58-.24,3.31-.49,5.54-.83-2.36-9.79,4-12.52,11.13-14.63,3.12-.92,6.5-1.45,9.29-2.99,7.58-4.18,17.97-3.58,22.83-12.22,4.21-7.48,7.9-15.33,11.02-23.34,2.1-5.4.63-9.19-6.18-11.34-5.89-1.87-10.8-6.74-16.28-10.07-1.96-1.2-4.49-2.77-6.46-2.42-5.16.9-6.59-1.78-7.48-5.9-.74-3.47-1.8-6.85-2.35-8.88-4.53,0-8.71,1.16-10.01-.28-2.01-2.22-2.46-6.2-2.78-9.5-.14-1.51,1.76-3.13,2.43-4.81.84-2.07,1.34-4.25,2-6.39-2.83-.01-6.45-1.16-8.32.15-11.64,8.25-20.21,7.06-27.62-4.62-1.11-1.76-1.92-3.72-2.87-5.58-4.88,4.01-7.71,6.55-10.99,8.15-1.68.81-5.71.57-6.04-.27-2.31-5.65-7.26-7.32-12.04-9.79-2.29-1.19-3.92-4.28-5.11-6.85-1.09-2.38-1.2-5.23-1.72-7.72-5.3,1.26-10.66,4.38-14.08,2.94-5.06-2.14-4.17-8.36-3.5-12.22,8.13-.7,15.57-.56,22.53-2.31,2.69-.67,5.5-5.44,6-8.69.35-2.24-2.91-5.33-5.05-7.57-3.05-3.19-6.98-5.59-9.75-8.97-2.77-3.38-4.24-5.86-9.4-2.66-3.3,2.03-9.69,2.8-12.6.9-4.77-3.11-3.94-8.97-.55-13.67,2.74-3.79,2.1-6.52-1.58-9.46-2.17-1.73-4.35-4.5-4.83-7.11-1.19-6.53-4.07-7.12-9.06-3.87-1.94,1.27-3.92,2.56-6.01,3.54-8.49,3.92-16.5,5.19-24.83-1.47-3.93-3.15-9.61-4.34-14.69-5.69-1.47-.41-4.63,1.27-5.25,2.74-2.63,6.17,2.17,15.87,8.5,18.42,2.63,1.06,5.16,2.34,7.72,3.51-.15.59-.32,1.19-.48,1.78-2.17-.13-4.35-.43-6.5-.34-7.86.38-15.78.45-23.54,1.54-4.63.64-9.65,5.97-11.99-2.77-.11-.43-1.64-.53-2.53-.7-4.31-.87-8.67-1.54-12.95-2.56-7.89-1.9-10.13-.55-11.55,7.34-.34,1.83-.43,3.82-1.24,5.41-.62,1.22-2.2,1.96-3.34,2.9-.77-1.05-1.73-2-2.22-3.18-.45-1.04-.36-2.29-.62-4.2-.97,1.11-1.3,1.43-1.57,1.79-2.36,3.31-4.03,8.27-9.53,5.76-5.47-2.49-3.23-6.67-1.79-10.76.43-1.26-.83-3.11-1.31-4.69-1.59,1.36-3.85,2.39-4.7,4.13-6.83,13.93-14.76,15.94-26.99,6.48-4.04-3.13-7.66-6.9-11.96-9.59-1.55-.98-6.17-.39-6.56.6-2.48,6.24-7.11,6.31-12.07,4.74-10.36-3.27-20.59-6.95-31.44-10.66-.25,2.99.13,5.52-.8,7.43-1.22,2.49-3.16,5.97-5.3,6.38-5.33,1.02-11.43,1.99-16.34.34-9.97-3.31-17.04,1.54-24.62,6.01-4.64,2.73-9.06,5.99-13.72-.73-1.36-1.96-5.61-2.45-8.57-2.59-2.91-.14-5.92.85-8.81,1.64-12.13,3.27-24.76,6-33.65,15.68-4.76,5.16-8.48,6.73-14.84,2.77-8.04-5.02-16.39-9.97-26.49-3.37-1.66,1.09-5.99-1.61-8.97-2.84-2.41-1.01-5.01-3.89-6.88-3.41-9.82,2.5-19.86,4.91-29.01,9.12-7.9,3.65-8.6,8.85-5.41,17.02,1.52,3.87,3.16,7.82,3.82,11.87.85,5.26,3.78,8.24,8.34,10.28,8.69,3.87,17.4,7.72,25.97,11.83,16.45,7.9,22.48,19.33,20.16,37.54-.14,1.12-.22,2.41.17,3.43,2.91,7.57,5.9,15.08,8.92,22.59,1.73,4.29,4.15,8.39,5.29,12.84,2.46,9.66,4.97,19.43,6.1,29.3.56,4.84-1.09,10.39-3.16,14.98-2.91,6.41-7.99,11.86-10.62,18.35-3.19,7.86-6.24,15.19-16.29,18.28,6.74,5.87-1.17,9.11-1.54,12.03-6.36,3.02-12.22,4.95-17.15,8.29-9.01,6.14-8.35,11.32.32,18.17,3.96,3.13,8.9,7.68,9.34,11.99.71,7.08-1.31,14.64-3.24,21.71-1.69,6.21-1.5,11.16,3.19,16.03,2.27,2.35,4.46,5.79,4.69,8.88.5,6.5,3.76,10.03,9.15,12.87,1.99,1.04,4.45,4.1,4.21,5.89-1.1,8.04.98,15.01,5.02,21.75,1.13,1.87,1.52,4.18,2.36,6.62-1.5.29-2.38.63-3.26.63-10.1.07-12.76,3.55-10.2,13.43,2.97,11.39,13.22,19.39,24.7,19.79,3.36.11,6.87.97,9.97,2.28,7.75,3.29,15.92,6.13,22.78,10.78,15.53,10.55,32.59,8.42,49.65,8.03,10.56-.24,21.13.22,31.69.22,1.61-.01,3.33-.6,4.8-1.34,9.97-5.04,19.96-9.64,31.39-4.34,1.45.67,3.05,1.47,4.6,1.48,7.39.08,10.88,4.57,14.22,10.52,2.08,3.71,6.28,6.28,9.71,9.16,2.73,2.29,5.71,4.28,8.62,6.36,1.44,1.02,2.85,2.2,4.46,2.88,9.36,4.04,18.95,7.65,23.83,17.72.7,1.41,1.73,2.94,3.02,3.75,9.08,5.72,13.06,14.21,15.05,24.48,1.97,10.2,6.21,19.23,17.29,23.12,7.18,2.52,14.11,5.69,21.09,8.71.63.28.83,1.55,1.22,2.36,1.65,3.47,3.52,6.87,4.88,10.46,1.55,4.13,3.02,8.38,3.8,12.7.71,3.92,1.78,6.29,6.27,4.73,7.47-2.62,14.84-5.59,22.46-7.69,4.53-1.26,11.06-3.27,13.87-1.16,7.54,5.64,13.41,4.62,19.97-.59,1.04-.83,2.53-1.12,3.87-1.47,9.82-2.6,26.11-17.04,29.5-26.8,1.72-4.94,5.11-6.69,9.01-4.38,4.57,2.71,8.74,6.53,12.17,10.64,3.68,4.43,5.34,10.84,9.55,14.48,8.59,7.4,9.47,16.59,9.13,26.63-.13,3.73-.6,7.57.1,11.16.49,2.48,2.62,6.45,4.2,6.55,3.55.22,9.65-.66,10.41-2.7,2.85-7.66,9.18-7.04,14.85-7.87,4.27-.62,6.36,1.52,5.92,6.27-.88,9.02,8.92,18.76,18.22,19.13,11.2.45,21.83,2.48,26.81,14.64.28.7,1.29,1.11,2.18,1.82,1.27-1.06,2.41-1.85,3.36-2.81,9.23-9.44,18.34-18.99,27.74-28.27,1.19-1.19,3.93-1.66,5.68-1.27,7.54,1.73,14.57-1.11,18.31-6.25,6.34-8.71,14.74-8.06,21.75-5.23,6.28,2.53,20.21-1.41,16.76,13.76-.07.29.42.85.78,1.08,6.9,4.43,3.37,9.32.98,14.52-2.98,6.48-5.8,13.11-7.73,19.95-.56,2,1.86,6.83,3.47,7.11,9.44,1.61,16.27,7.51,23.79,12.52,5.15,3.44,10.84,6.35,16.67,8.36,10.55,3.62,11.36,6.01,7.65,16.6-2.06,5.89-3.99,13.89-1.59,18.81,4.76,9.87,6.41,20.07,8.42,30.44.36,1.85,1.69,3.96,3.22,5.06,5.83,4.22,9.33,9.41,9.39,16.91.01,2.04,1.54,4.59,3.15,5.99,4.95,4.27,6.1,9.55,5.82,15.71-.13,2.71.55,5.55,1.26,8.22,3.01,11.19,6.39,22.28,9.13,33.53,1.01,4.11,2.76,5.09,6.32,3.65,4.7-1.9,9.57-3.55,13.97-5.99,6.28-3.47,11.83-8.49,18.38-11.16,9.85-4.03,20.15-7.97,30.34.38,1.87,1.54,5.68,1.16,8.53.98,7.69-.5,14.88-.2,21.2,5.36,4.08,3.58,9.32,4.41,14.15,1.09,3.8-2.59,7.79-5.26,10.71-8.74,8.29-9.87,17.18-19.54,23.6-30.59,3.24-5.61,4.83-8.88,11.82-8.08,6.97.81,8.41-1.5,8.21-8.55-.08-2.92-.18-6.8,1.5-8.63,9.02-9.96,17.82-20.39,28.24-28.73,9.92-7.94,15.39-6.35,24.57,3.08,1.94-1.16,3.55-2.11,5.13-3.08,8.03-4.85,16.52-9.61,18.77-19.61,2.92-12.9,7.73-23.9,20.69-29.92,5.83-2.71,11.01-6.85,16.48-10.34,7.18-4.57,14.77-8.6,21.37-13.87,5.38-4.29,4.88-8.73-.76-12.55-5.54-3.75-7.15-8.67-6.99-14.95.2-8.74.04-17.48-.17-26.23-.15-6.35,2.07-10.84,8.5-12.71,1.51-.43,3.36-.98,4.21-2.11,3.04-4.01-.8-19.39-4.83-22.7ZM587.84,516.53c-3.51.32-7.04,1.55-10.31,2.95-4.95,2.11-9.72,2.57-13.54-1.59-4.03-4.41-7.41-3.59-11.29-.04-8.83,8.13-29.74,11.92-39.53,5.57-9.08-5.87-18.29-12.59-18.41-25.71-.14-14.83-.78-29.65-1.65-44.45-.5-8.55-1.92-17.05-2.78-24.46-7.76,0-15.08.28-22.36-.11-4.24-.22-8.49-1.15-7.26-7.55.28-1.45-1.86-4.45-3.5-5.01-7.85-2.76-12.22-7.51-11.83-16.25.18-4.06-1.59-5.59-6.24-4.48-5.52,1.34-11.37,1.55-17.09,1.78-1.34.06-3.86-1.8-3.89-2.84-.04-1.76,1.58-5.15,2.29-5.09,6.22.5,7.26-3.48,8.14-8.14.27-1.43,1.66-2.63,3.01-4.62-1.01-1.16-2.17-3.23-3.92-4.34-5.87-3.71-7.19-7.33-2.53-13.5,3.22-4.27,5.38-5.15,9.37-1.72,1.19,1.02,2.84,1.89,4.36,2.08,12.48,1.59,22.7,7.64,32.32,15.34,2.73,2.18,7.51,1.89,10.01,4.18,8.45,7.75,16.55,15.93,24.17,24.48,1.76,1.97,1.13,6.07,1.44,8.2,4.81,2.49,9.18,5.19,13.86,7.01,2.57.99,5.72.53,8.84.74-.22-2.08-.14-2.59-.34-2.97-1.34-2.6-2.74-5.19-4.11-7.78,3.2.15,6.57-.29,9.58.56,11.53,3.27,15.43,14.52,20.91,22.99,5.09,7.89,11.05,13.33,19.19,15.82,10.63,3.26,15.75,12.46,23.41,18.88,10.99,9.2,10.55,22.32,10.62,34.81.04,7.61-10.39,14.25-20.97,15.25Z"/>
</svg>