<?xml version="1.0" encoding="utf-8"?>
<!-- Generator: Adobe Illustrator 28.2.0, SVG Export Plug-In . SVG Version: 6.00 Build 0)  -->
<svg version="1.1" id="Layer_1" xmlns="http://www.w3.org/2000/svg" xmlns:xlink="http://www.w3.org/1999/xlink" x="0px" y="0px"
	 viewBox="0 0 1080 1080" style="enable-background:new 0 0 1080 1080;" xml:space="preserve">
<style type="text/css">
	.st0{fill:#002121;}
	.st1{fill:#FFFFFF;}
	.st2{fill:#F90006;}
	.st3{fill:#00C185;stroke:#FFFFFF;stroke-width:0.7;stroke-miterlimit:10;}
	.st4{fill:#231F20;}
	.st5{fill:none;stroke:#000000;stroke-width:0.9129;stroke-miterlimit:10;}
	.st6{fill:#746D55;}
	.st7{fill:none;stroke:#746D55;stroke-width:2;stroke-miterlimit:10;}
</style>
<rect class="st1" width="1080" height="1080"/>
<g>
	<path d="M130.72,699.83c-11.41-11.93-22.31-30.09-32.68-54.47L0,417.64h65.36l88.18,212.16c14.53,34.76,22.31,43.57,38.39,43.57
		c16.6,0,24.38-8.3,38.9-42.02l91.82-213.72h41.5L262.48,646.92c-10.89,24.9-16.6,35.27-29.05,50.32
		c-11.93,14.52-27.49,20.23-49.8,20.23C160.29,717.47,142.65,711.76,130.72,699.83z"/>
	<path d="M691.47,710.72C453.89,743.4,363.63,696.2,363.63,566c0-100.12,57.06-153.54,171.7-153.54
		c112.05,0,170.66,53.43,170.66,141.09c0,16.08-4.67,19.71-17.12,19.71l-263.52,1.04c0,52.39,19.71,86.63,59.14,102.19
		c39.94,15.56,108.93,17.12,206.97,4.15V710.72z M645.3,543.17c0-66.92-34.76-100.12-109.97-100.12
		c-73.14,0-103.75,31.12-109.45,100.12H645.3z"/>
	<path d="M757.87,714.36v-393.2h61.73v150.95c7.78-17.64,22.31-31.64,44.09-42.54c21.79-10.89,46.17-16.08,72.62-16.08
		c58.1,0,95.45,11.41,116.2,36.83c20.75,24.9,27.49,55.5,27.49,103.75v160.29h-42.54c-12.97,0-19.71-6.74-19.71-20.23V556.14
		c0-43.06-6.22-72.62-18.15-87.67c-11.93-15.04-36.31-22.82-72.62-22.82c-74.7,0-107.38,32.68-107.38,120.35v148.36H757.87z"/>
</g>
</svg>
