<?xml version="1.0" encoding="utf-8"?>
<!-- Generator: Adobe Illustrator 28.2.0, SVG Export Plug-In . SVG Version: 6.00 Build 0)  -->
<svg version="1.1" id="Layer_1" xmlns="http://www.w3.org/2000/svg" xmlns:xlink="http://www.w3.org/1999/xlink" x="0px" y="0px"
	 viewBox="0 0 1080 1080" style="enable-background:new 0 0 1080 1080;" xml:space="preserve">
<style type="text/css">
	.st0{fill:#002121;}
	.st1{fill:#FFFFFF;}
	.st2{fill:#F90006;}
	.st3{fill:#00C185;stroke:#FFFFFF;stroke-width:0.7;stroke-miterlimit:10;}
	.st4{fill:#231F20;}
	.st5{fill:none;stroke:#000000;stroke-width:0.9129;stroke-miterlimit:10;}
	.st6{fill:#746D55;}
	.st7{fill:none;stroke:#746D55;stroke-width:2;stroke-miterlimit:10;}
</style>
<g>
	<path d="M359.96,597.5c-4.88-5.11-9.55-12.88-13.99-23.31l-41.96-97.46h27.97l37.74,90.8c6.22,14.87,9.55,18.65,16.43,18.65
		c7.1,0,10.43-3.55,16.65-17.98l39.29-91.46h17.76l-43.51,98.12c-4.66,10.66-7.1,15.1-12.43,21.53c-5.11,6.22-11.77,8.66-21.31,8.66
		C372.61,605.05,365.06,602.6,359.96,597.5z"/>
	<path d="M599.94,602.16c-101.68,13.99-140.3-6.22-140.3-61.94c0-42.85,24.42-65.71,73.48-65.71c47.95,0,73.04,22.87,73.04,60.38
		c0,6.88-2,8.44-7.33,8.44l-112.78,0.44c0,22.42,8.44,37.07,25.31,43.73c17.09,6.66,46.62,7.33,88.58,1.78V602.16z M580.18,530.45
		c0-28.64-14.87-42.85-47.06-42.85c-31.3,0-44.4,13.32-46.84,42.85H580.18z"/>
	<path d="M628.36,603.71V435.44h26.42v64.6c3.33-7.55,9.55-13.54,18.87-18.2c9.32-4.66,19.76-6.88,31.08-6.88
		c24.86,0,40.85,4.88,49.73,15.76c8.88,10.66,11.77,23.75,11.77,44.4v68.6h-18.2c-5.55,0-8.44-2.89-8.44-8.66V536
		c0-18.43-2.66-31.08-7.77-37.52c-5.11-6.44-15.54-9.77-31.08-9.77c-31.97,0-45.95,13.99-45.95,51.5v63.49H628.36z"/>
</g>
</svg>
