<svg width="1080" height="400" viewBox="0 0 1080 400" fill="none" xmlns="http://www.w3.org/2000/svg">
<g clip-path="url(#clip0_312_37)">
<path d="M130.72 378.67C119.31 366.74 108.41 348.58 98.04 324.2L0 96.4797H65.36L153.54 308.64C168.07 343.4 175.85 352.21 191.93 352.21C208.53 352.21 216.31 343.91 230.83 310.19L322.65 96.4697H364.15L262.48 325.76C251.59 350.66 245.88 361.03 233.43 376.08C221.5 390.6 205.94 396.31 183.63 396.31C160.29 396.31 142.65 390.6 130.72 378.67Z" fill="black"/>
<path d="M691.47 389.56C453.89 422.24 363.63 375.04 363.63 244.84C363.63 144.72 420.69 91.2998 535.33 91.2998C647.38 91.2998 705.99 144.73 705.99 232.39C705.99 248.47 701.32 252.1 688.87 252.1L425.35 253.14C425.35 305.53 445.06 339.77 484.49 355.33C524.43 370.89 593.42 372.45 691.46 359.48V389.56H691.47ZM645.3 222.01C645.3 155.09 610.54 121.89 535.33 121.89C462.19 121.89 431.58 153.01 425.88 222.01H645.3Z" fill="black"/>
<path d="M757.87 393.2V0H819.6V150.95C827.38 133.31 841.91 119.31 863.69 108.41C885.48 97.52 909.86 92.33 936.31 92.33C994.41 92.33 1031.76 103.74 1052.51 129.16C1073.26 154.06 1080 184.66 1080 232.91V393.2H1037.46C1024.49 393.2 1017.75 386.46 1017.75 372.97V234.98C1017.75 191.92 1011.53 162.36 999.6 147.31C987.67 132.27 963.29 124.49 926.98 124.49C852.28 124.49 819.6 157.17 819.6 244.84V393.2H757.87Z" fill="black"/>
</g>
<defs>
<clipPath id="clip0_312_37">
<rect width="1080" height="399.561" fill="white"/>
</clipPath>
</defs>
</svg>
